<svg width="234" height="41" viewBox="0 0 234 41" fill="none" xmlns="http://www.w3.org/2000/svg">
<path d="M68.54 12.2021V30H65.1584L56.2848 19.1941V30H52.2168V12.2021H55.6238L64.4719 23.008V12.2021H68.54ZM86.2518 16.3211V30H82.4888V28.3728C81.9634 28.966 81.3362 29.4237 80.6073 29.7457C79.8785 30.0509 79.0903 30.2034 78.2428 30.2034C76.446 30.2034 75.0222 29.6864 73.9713 28.6524C72.9204 27.6185 72.3949 26.0845 72.3949 24.0504V16.3211H76.3613V23.4656C76.3613 25.6692 77.2851 26.771 79.1327 26.771C80.0819 26.771 80.8447 26.4659 81.421 25.8556C81.9973 25.2285 82.2854 24.3047 82.2854 23.0843V16.3211H86.2518ZM98.2406 16.1177C99.9356 16.1177 101.3 16.6262 102.334 17.6432C103.385 18.6602 103.91 20.1688 103.91 22.1689V30H99.9441V22.7791C99.9441 21.6943 99.7068 20.8892 99.2321 20.3637C98.7575 19.8213 98.071 19.5501 97.1727 19.5501C96.1726 19.5501 95.3759 19.8637 94.7827 20.4909C94.1894 21.1011 93.8928 22.0164 93.8928 23.2368V30H89.9264V11.1343H93.8928V17.7449C94.4182 17.2194 95.0539 16.8211 95.7997 16.5499C96.5455 16.2617 97.3591 16.1177 98.2406 16.1177ZM113.023 16.1177C115.142 16.1177 116.769 16.6262 117.905 17.6432C119.04 18.6433 119.608 20.1603 119.608 22.1944V30H115.896V28.2965C115.15 29.5678 113.76 30.2034 111.726 30.2034C110.675 30.2034 109.76 30.0254 108.98 29.6695C108.218 29.3135 107.633 28.822 107.226 28.1948C106.819 27.5676 106.616 26.8557 106.616 26.059C106.616 24.7878 107.09 23.7877 108.04 23.0588C109.006 22.33 110.489 21.9655 112.489 21.9655H115.642C115.642 21.1011 115.379 20.44 114.854 19.9823C114.328 19.5077 113.54 19.2704 112.489 19.2704C111.76 19.2704 111.04 19.3891 110.328 19.6264C109.633 19.8467 109.04 20.1518 108.548 20.5417L107.124 17.7703C107.87 17.2449 108.76 16.838 109.794 16.5499C110.845 16.2617 111.921 16.1177 113.023 16.1177ZM112.718 27.5337C113.396 27.5337 113.998 27.3812 114.523 27.0761C115.049 26.754 115.422 26.2879 115.642 25.6777V24.2793H112.921C111.294 24.2793 110.481 24.8132 110.481 25.8811C110.481 26.3896 110.675 26.7964 111.065 27.1015C111.472 27.3896 112.023 27.5337 112.718 27.5337Z" fill="#A4BC46"/>
<path d="M134.797 15.5074V20.2112H143.035V23.5165H134.797V30H130.678V12.2021H144.128V15.5074H134.797ZM151.782 16.1177C153.901 16.1177 155.528 16.6262 156.664 17.6432C157.8 18.6433 158.367 20.1603 158.367 22.1944V30H154.655V28.2965C153.909 29.5678 152.519 30.2034 150.485 30.2034C149.435 30.2034 148.519 30.0254 147.739 29.6695C146.977 29.3135 146.392 28.822 145.985 28.1948C145.578 27.5676 145.375 26.8557 145.375 26.059C145.375 24.7878 145.85 23.7877 146.799 23.0588C147.765 22.33 149.248 21.9655 151.248 21.9655H154.401C154.401 21.1011 154.138 20.44 153.613 19.9823C153.087 19.5077 152.299 19.2704 151.248 19.2704C150.519 19.2704 149.799 19.3891 149.087 19.6264C148.392 19.8467 147.799 20.1518 147.307 20.5417L145.883 17.7703C146.629 17.2449 147.519 16.838 148.553 16.5499C149.604 16.2617 150.68 16.1177 151.782 16.1177ZM151.477 27.5337C152.155 27.5337 152.757 27.3812 153.282 27.0761C153.808 26.754 154.181 26.2879 154.401 25.6777V24.2793H151.68C150.053 24.2793 149.24 24.8132 149.24 25.8811C149.24 26.3896 149.435 26.7964 149.824 27.1015C150.231 27.3896 150.782 27.5337 151.477 27.5337ZM166.559 30.2034C165.423 30.2034 164.313 30.0678 163.228 29.7966C162.144 29.5084 161.279 29.1525 160.635 28.7287L161.957 25.8811C162.567 26.2709 163.305 26.593 164.169 26.8472C165.034 27.0845 165.881 27.2032 166.712 27.2032C168.39 27.2032 169.229 26.7879 169.229 25.9573C169.229 25.5675 169 25.2878 168.542 25.1183C168.085 24.9488 167.381 24.8047 166.432 24.6861C165.313 24.5166 164.39 24.3216 163.661 24.1013C162.932 23.8809 162.296 23.4911 161.754 22.9317C161.228 22.3723 160.966 21.5757 160.966 20.5417C160.966 19.6772 161.211 18.9145 161.703 18.2534C162.211 17.5754 162.94 17.0499 163.889 16.677C164.856 16.3041 165.991 16.1177 167.296 16.1177C168.263 16.1177 169.22 16.2278 170.17 16.4482C171.136 16.6516 171.932 16.9398 172.56 17.3127L171.237 20.1349C170.034 19.4569 168.72 19.1179 167.296 19.1179C166.449 19.1179 165.813 19.2365 165.39 19.4738C164.966 19.7111 164.754 20.0162 164.754 20.3891C164.754 20.8129 164.983 21.1095 165.44 21.279C165.898 21.4485 166.627 21.6096 167.627 21.7621C168.746 21.9486 169.661 22.152 170.373 22.3723C171.085 22.5757 171.704 22.9571 172.229 23.5165C172.755 24.0759 173.017 24.8556 173.017 25.8556C173.017 26.7032 172.763 27.4574 172.254 28.1185C171.746 28.7796 171 29.2966 170.017 29.6695C169.051 30.0254 167.898 30.2034 166.559 30.2034ZM183.779 16.1177C185.474 16.1177 186.838 16.6262 187.872 17.6432C188.923 18.6602 189.448 20.1688 189.448 22.1689V30H185.482V22.7791C185.482 21.6943 185.245 20.8892 184.77 20.3637C184.296 19.8213 183.609 19.5501 182.711 19.5501C181.711 19.5501 180.914 19.8637 180.321 20.4909C179.727 21.1011 179.431 22.0164 179.431 23.2368V30H175.464V11.1343H179.431V17.7449C179.956 17.2194 180.592 16.8211 181.338 16.5499C182.084 16.2617 182.897 16.1177 183.779 16.1177ZM193.044 16.3211H197.01V30H193.044V16.3211ZM195.027 14.4141C194.298 14.4141 193.705 14.2023 193.247 13.7785C192.79 13.3548 192.561 12.8293 192.561 12.2021C192.561 11.575 192.79 11.0495 193.247 10.6257C193.705 10.202 194.298 9.99011 195.027 9.99011C195.756 9.99011 196.349 10.1935 196.807 10.6003C197.264 11.0071 197.493 11.5156 197.493 12.1259C197.493 12.7869 197.264 13.3378 196.807 13.7785C196.349 14.2023 195.756 14.4141 195.027 14.4141ZM207.2 30.2034C205.759 30.2034 204.463 29.9068 203.31 29.3135C202.174 28.7033 201.285 27.8643 200.64 26.7964C199.996 25.7285 199.674 24.5166 199.674 23.1605C199.674 21.8045 199.996 20.5926 200.64 19.5247C201.285 18.4568 202.174 17.6262 203.31 17.033C204.463 16.4228 205.759 16.1177 207.2 16.1177C208.641 16.1177 209.929 16.4228 211.065 17.033C212.201 17.6262 213.091 18.4568 213.735 19.5247C214.379 20.5926 214.701 21.8045 214.701 23.1605C214.701 24.5166 214.379 25.7285 213.735 26.7964C213.091 27.8643 212.201 28.7033 211.065 29.3135C209.929 29.9068 208.641 30.2034 207.2 30.2034ZM207.2 26.9489C208.217 26.9489 209.048 26.6099 209.692 25.9319C210.353 25.237 210.684 24.3132 210.684 23.1605C210.684 22.0079 210.353 21.0926 209.692 20.4146C209.048 19.7196 208.217 19.3721 207.2 19.3721C206.183 19.3721 205.344 19.7196 204.683 20.4146C204.022 21.0926 203.692 22.0079 203.692 23.1605C203.692 24.3132 204.022 25.237 204.683 25.9319C205.344 26.6099 206.183 26.9489 207.2 26.9489ZM225.666 16.1177C227.361 16.1177 228.726 16.6262 229.76 17.6432C230.811 18.6602 231.336 20.1688 231.336 22.1689V30H227.37V22.7791C227.37 21.6943 227.132 20.8892 226.658 20.3637C226.183 19.8213 225.497 19.5501 224.598 19.5501C223.598 19.5501 222.802 19.8637 222.208 20.4909C221.615 21.1011 221.318 22.0164 221.318 23.2368V30H217.352V16.3211H221.14V17.9229C221.666 17.3466 222.318 16.9059 223.098 16.6007C223.878 16.2787 224.734 16.1177 225.666 16.1177Z" fill="#363958"/>
<path d="M46 15.3755C46 8.43875 35.7026 2.81543 23 2.81543C10.2974 2.81543 0 8.43875 0 15.3755C0 16.4967 0.269352 17.5836 0.774453 18.6179C1.67352 20.4589 1.89768 22.5555 1.45161 24.5553C1.26868 25.3753 1.16599 26.2255 1.15216 27.0973C1.0412 34.0882 6.71897 39.8606 13.7107 39.8606C18.9614 39.8605 23.459 36.6384 25.3351 32.0635C26.3655 29.5511 28.5304 27.6685 31.1889 27.1152C39.848 25.3131 46 20.7369 46 15.3755V15.3755Z" fill="url(#paint0_linear)"/>
<path d="M29.4882 6.61874V20.4773C29.4882 20.7716 29.7268 21.0104 30.0212 21.0104H32.4638C32.7581 21.0104 32.9968 20.7717 32.9968 20.4773V11.3542C32.9968 10.8585 33.3987 10.4566 33.8945 10.4566C34.3902 10.4566 34.7921 10.8585 34.7921 11.3542V20.4772C34.7921 20.7716 35.0307 21.0103 35.3251 21.0103H37.7677C38.062 21.0103 38.3008 20.7716 38.3008 20.4772V6.61874C38.3008 6.32441 38.0621 6.08569 37.7677 6.08569H30.0213C29.7268 6.08569 29.4882 6.32432 29.4882 6.61874V6.61874Z" fill="#9494FF"/>
<path d="M38.2997 7.59615V6.61874C38.2997 6.32432 38.0611 6.08569 37.7666 6.08569H30.0202C29.7258 6.08569 29.4872 6.32432 29.4872 6.61874V7.59615H38.2997Z" fill="#D9D9FF"/>
<path d="M29.4873 19.4114V20.4774C29.4873 20.7717 29.7259 21.0104 30.0203 21.0104H32.4629C32.7573 21.0104 32.996 20.7718 32.996 20.4774V19.4114H29.4873Z" fill="#D9D9FF"/>
<path d="M34.7911 19.4114V20.4774C34.7911 20.7717 35.0298 21.0104 35.3242 21.0104H37.7668C38.0611 21.0104 38.2998 20.7718 38.2998 20.4774V19.4114H34.7911Z" fill="#D9D9FF"/>
<path d="M36.1876 7.59619C36.2109 8.5029 36.7016 9.33332 37.4902 9.78793L38.2993 10.2549V7.59619H36.1876Z" fill="#363958"/>
<path d="M31.599 7.59619C31.5757 8.5029 31.085 9.33332 30.2964 9.78793L29.4873 10.2549V7.59619H31.599Z" fill="#363958"/>
<path d="M32.2119 7.76622H31.7055C31.6467 7.76622 31.5989 7.71852 31.5989 7.65958V6.08569H32.3184V7.65958C32.3185 7.71852 32.2708 7.76622 32.2119 7.76622Z" fill="#B3B3FF"/>
<path d="M36.0811 7.76622H35.5748C35.5159 7.76622 35.4681 7.71852 35.4681 7.65958V6.08569H36.1877V7.65958C36.1877 7.71852 36.14 7.76622 36.0811 7.76622Z" fill="#B3B3FF"/>
<path d="M5.49573 25.316V33.7888C5.49573 34.0831 5.73435 34.3218 6.02877 34.3218H8.47135C8.76577 34.3218 9.0044 34.0832 9.0044 33.7888V30.0515C9.0044 29.5557 9.40627 29.1539 9.90202 29.1539C10.3978 29.1539 10.7997 29.5557 10.7997 30.0515V33.7888C10.7997 34.0831 11.0383 34.3218 11.3327 34.3218H13.7753C14.0697 34.3218 14.3083 34.0832 14.3083 33.7888V25.316C14.3083 25.0217 14.0697 24.783 13.7753 24.783H6.02877C5.73444 24.783 5.49573 25.0216 5.49573 25.316V25.316Z" fill="#A4BC46"/>
<path d="M14.3082 26.2934V25.316C14.3082 25.0216 14.0696 24.783 13.7752 24.783H6.02877C5.73435 24.783 5.49573 25.0216 5.49573 25.316V26.2934H14.3082Z" fill="#FFD9D9"/>
<path d="M5.49573 32.7229V33.7889C5.49573 34.0832 5.73435 34.3219 6.02877 34.3219H8.47135C8.76577 34.3219 9.0044 34.0833 9.0044 33.7889V32.7229H5.49573Z" fill="#FFD9D9"/>
<path d="M10.7996 32.7229V33.7889C10.7996 34.0832 11.0382 34.3219 11.3326 34.3219H13.7752C14.0696 34.3219 14.3082 34.0833 14.3082 33.7889V32.7229H10.7996Z" fill="#FFD9D9"/>
<path d="M12.1962 26.2935C12.2194 27.2002 12.7102 28.0306 13.4987 28.4852L14.3079 28.9521V26.2935H12.1962Z" fill="#FF4D4D"/>
<path d="M7.60754 26.2935C7.58427 27.2002 7.09354 28.0306 6.30498 28.4852L5.49585 28.9521V26.2935H7.60754Z" fill="#FF4D4D"/>
<path d="M8.22043 26.4635H7.71407C7.65522 26.4635 7.60742 26.4158 7.60742 26.3569V24.783H8.32698V26.3569C8.32707 26.4158 8.27927 26.4635 8.22043 26.4635V26.4635Z" fill="#A4BC46"/>
<path d="M12.0896 26.4635H11.5832C11.5244 26.4635 11.4766 26.4158 11.4766 26.3569V24.783H12.1961V26.3569C12.1962 26.4158 12.1485 26.4635 12.0896 26.4635Z" fill="#A4BC46"/>
<path d="M25.2037 5.1609L22.666 7.69862C22.505 7.85971 22.2438 7.85971 22.0827 7.69862L20.6262 6.24216V15.0685C20.6262 15.2963 20.4415 15.481 20.2138 15.481H10.5454C10.3176 15.481 10.1329 15.2963 10.1329 15.0685V6.24216L8.67647 7.69862C8.51538 7.85971 8.2542 7.85971 8.09311 7.69862L5.55539 5.1609C5.3943 4.99981 5.3943 4.73863 5.55539 4.57754L10.0121 0.12084C10.0894 0.0434843 10.1944 0 10.3038 0H12.4326C12.5956 0 12.7462 0.0949648 12.8095 0.245273C13.2311 1.24811 14.2232 1.95257 15.3796 1.95257C16.5361 1.95257 17.5281 1.24811 17.9498 0.245273C18.013 0.0949648 18.1636 0 18.3267 0H20.4554C20.5649 0 20.6697 0.0434843 20.7472 0.12084L25.2039 4.57754C25.3648 4.73863 25.3648 4.99981 25.2037 5.1609Z" fill="#FF4D4D"/>
<path d="M26.2937 26.2468L27.8102 24.7303L32.2431 29.1632L30.7266 30.6797L26.2937 26.2468Z" fill="#4D4DFF"/>
<path d="M27.8164 24.7297L29.4872 26.4005C29.2649 26.6764 29.0252 26.943 28.769 27.1991C28.5129 27.4551 28.2463 27.6949 27.9704 27.9172L26.2997 26.2465L27.8164 24.7297Z" fill="#2C27FF"/>
<path d="M20.7893 29.2705C26.3403 29.2705 30.8403 24.7705 30.8403 19.2195C30.8403 13.6684 26.3403 9.16846 20.7893 9.16846C15.2383 9.16846 10.7383 13.6684 10.7383 19.2195C10.7383 24.7705 15.2383 29.2705 20.7893 29.2705Z" fill="#FF9D33"/>
<path d="M20.7892 26.9571C25.0626 26.9571 28.5269 23.4928 28.5269 19.2194C28.5269 14.946 25.0626 11.4817 20.7892 11.4817C16.5158 11.4817 13.0515 14.946 13.0515 19.2194C13.0515 23.4928 16.5158 26.9571 20.7892 26.9571Z" fill="#D9D9FF"/>
<path d="M28.4592 18.1997L19.7693 26.8886C18.9175 26.7773 18.0818 26.5233 17.2991 26.1275L27.697 15.7295C28.0939 16.5122 28.348 17.3478 28.4592 18.1997V18.1997Z" fill="#EBEBFF"/>
<path d="M27.2869 15.0159L16.5864 25.7164C16.1368 25.4265 15.7113 25.0835 15.3181 24.6904C14.8298 24.2021 14.4196 23.6644 14.0902 23.0935L24.6632 12.5205C25.2341 12.85 25.7727 13.2601 26.261 13.7484C26.6541 14.1416 26.9961 14.5671 27.2869 15.0159V15.0159Z" fill="#EBEBFF"/>
<path d="M23.4219 11.9427V21.5023C23.4219 21.7868 23.1911 22.0158 22.9075 22.0158H13.5723C12.5014 19.2457 13.0822 15.9837 15.3172 13.7487C17.5083 11.5576 20.6885 10.9553 23.4219 11.9427V11.9427Z" fill="#FF6C6C"/>
<path d="M42.1189 38.567L40.1366 40.5493C39.8144 40.8715 39.2921 40.8715 38.9699 40.5493L29.965 31.5445C29.6428 31.2223 29.6428 30.6999 29.965 30.3778L31.9473 28.3954C32.2695 28.0733 32.7919 28.0733 33.114 28.3954L42.1189 37.4003C42.4411 37.7225 42.4411 38.2448 42.1189 38.567Z" fill="#FF9D33"/>
<path d="M31.3527 32.9387L34.5012 29.7902L35.9569 31.2459L32.8083 34.3944L31.3527 32.9387Z" fill="#FFC599"/>
<path d="M26.5782 13.4306C25.0319 11.8843 22.976 11.0327 20.7892 11.0327C18.6025 11.0327 16.5466 11.8843 15.0003 13.4306C13.454 14.9769 12.6024 17.0328 12.6024 19.2195C12.6024 21.4063 13.454 23.4622 15.0003 25.0085C16.5466 26.5548 18.6025 27.4064 20.7892 27.4064C22.976 27.4064 25.0319 26.5548 26.5782 25.0085C28.1245 23.4622 28.9762 21.4063 28.9762 19.2195C28.9762 17.0328 28.1245 14.9769 26.5782 13.4306V13.4306ZM25.9429 24.3733C24.5663 25.7498 22.736 26.508 20.7892 26.508C18.8423 26.508 17.012 25.7499 15.6355 24.3733C14.2589 22.9967 13.5007 21.1664 13.5007 19.2195C13.5007 17.2727 14.2588 15.4425 15.6355 14.0658C17.012 12.6893 18.8423 11.9311 20.7892 11.9311C22.736 11.9311 24.5662 12.6892 25.9429 14.0658C27.3195 15.4424 28.0776 17.2727 28.0776 19.2195C28.0776 21.1664 27.3195 22.9967 25.9429 24.3733Z" fill="#FF7300"/>
<path d="M20.7859 20.1263H18.0931C17.8452 20.1263 17.6443 19.9254 17.6443 19.6775V18.6602C17.6443 18.4123 17.8453 18.2114 18.0931 18.2114H20.7859C21.0338 18.2114 21.2347 18.4123 21.2347 18.6602V19.6775C21.2347 19.9253 21.0338 20.1263 20.7859 20.1263Z" fill="#4D4DFF"/>
<path d="M23.4218 20.0049V21.5021C23.4218 21.7867 23.1911 22.0156 22.9075 22.0156H21.4111L23.4218 20.0049Z" fill="#A4BC46"/>
<path d="M23.4219 13.762V18.8811L20.2874 22.0156H15.1683L23.4219 13.762Z" fill="#A4BC46"/>
<path d="M21.2343 18.6604V19.6775C21.2343 19.9252 21.0333 20.1262 20.7855 20.1262H18.0927C17.8449 20.1262 17.6439 19.9252 17.6439 19.6775V19.5401L18.9724 18.2117H20.7856C21.0333 18.2116 21.2343 18.4127 21.2343 18.6604Z" fill="#363958"/>
<path d="M38.3483 27.8551C38.2333 27.8551 38.1184 27.8112 38.0306 27.7235C37.8552 27.5481 37.8552 27.2636 38.0306 27.0882L38.9283 26.1906C39.1037 26.0152 39.3881 26.0152 39.5636 26.1906C39.739 26.3661 39.739 26.6505 39.5636 26.8259L38.6659 27.7235C38.5783 27.8112 38.4633 27.8551 38.3483 27.8551Z" fill="#FF9D33"/>
<path d="M19.4395 35.1995C19.3245 35.1995 19.2096 35.1557 19.1218 35.068C18.9464 34.8925 18.9464 34.6081 19.1218 34.4327L20.0195 33.5351C20.1949 33.3597 20.4793 33.3597 20.6547 33.5351C20.8302 33.7106 20.8302 33.995 20.6547 34.1704L19.7571 35.068C19.6694 35.1557 19.5544 35.1995 19.4395 35.1995V35.1995Z" fill="#FF9D33"/>
<path d="M6.80121 12.3589C6.68621 12.3589 6.5713 12.3151 6.48353 12.2274C6.30806 12.0519 6.30806 11.7675 6.48353 11.5921L7.38116 10.6945C7.55671 10.5191 7.84107 10.5192 8.01644 10.6945C8.19191 10.87 8.19191 11.1544 8.01644 11.3298L7.11881 12.2274C7.03113 12.315 6.91612 12.3589 6.80121 12.3589Z" fill="#363958"/>
<path d="M5.43461 15.8104C5.31961 15.8104 5.2047 15.7665 5.11692 15.6788L4.53698 15.0988L3.95695 15.6788C3.78148 15.8542 3.49713 15.8542 3.32166 15.6788C3.1462 15.5034 3.1462 15.2189 3.32166 15.0436L4.21929 14.1459C4.30356 14.0617 4.41776 14.0144 4.53698 14.0144C4.65611 14.0144 4.77039 14.0618 4.85466 14.1459L5.75229 15.0436C5.92776 15.219 5.92776 15.5035 5.75229 15.6788C5.66452 15.7664 5.54952 15.8104 5.43461 15.8104V15.8104Z" fill="#FF6C6C"/>
<path d="M31.4407 3.49785C31.3257 3.49785 31.2108 3.454 31.123 3.36632L30.5431 2.78628L29.9631 3.36632C29.7876 3.54178 29.5032 3.54169 29.3278 3.36632C29.1523 3.19085 29.1523 2.90641 29.3278 2.73103L30.2254 1.8334C30.4009 1.65803 30.6853 1.65812 30.8607 1.8334L31.7583 2.73103C31.9338 2.9065 31.9338 3.19094 31.7583 3.36632C31.6706 3.454 31.5556 3.49785 31.4407 3.49785V3.49785Z" fill="#FF6C6C"/>
<path d="M20.7894 29.2705C26.3404 29.2705 30.8404 24.7705 30.8404 19.2195C30.8404 13.6684 26.3404 9.16846 20.7894 9.16846C15.2384 9.16846 10.7384 13.6684 10.7384 19.2195C10.7384 24.7705 15.2384 29.2705 20.7894 29.2705Z" fill="url(#paint1_linear)"/>
<defs>
<linearGradient id="paint0_linear" x1="23" y1="-2.22597" x2="23" y2="54.7872" gradientUnits="userSpaceOnUse">
<stop offset="0.0023" stop-color="#FFC599"/>
<stop offset="0.992" stop-color="#FFE8DC" stop-opacity="0"/>
</linearGradient>
<linearGradient id="paint1_linear" x1="20.7894" y1="29.2705" x2="20.7894" y2="9.16846" gradientUnits="userSpaceOnUse">
<stop stop-color="#FF4D4D" stop-opacity="0.4"/>
<stop offset="1" stop-color="#FF4D4D" stop-opacity="0"/>
</linearGradient>
</defs>
</svg>
